#!OML:ASF H:\LiuWeirdWalks\Patient Classification 1\Patient 1\Session 1\male.ASF
:FULLY-SPECIFIED
:DEGREES
247
root 1.89645 17.2376 -11.5308 -1.10431 2.37655 -5.04047
lowerback 16.36 0.789742 0.0891843
upperback 0.758504 1.4348 4.1785
thorax -8.49463 0.781353 4.12671
lowerneck -20.7576 1.1987 5.51752
upperneck 22.0571 1.38307 -5.75831
head 10.5973 0.388863 -2.78645
rclavicle 1.60022e-014 -3.02153e-014
rhumerus -42.2986 -2.16365 -75.7133
rradius 37.1953
rwrist -6.48833
rhand -19.8585 2.37184
rfingers 7.12502
rthumb 6.4764 -27.5091
lclavicle 1.60022e-014 -3.02153e-014
lhumerus -37.4062 6.67799 74.6676
lradius 34.399
lwrist 4.28635
lhand -17.787 -8.30898
lfingers 7.12502
lthumb 8.47592 21.5009
rfemur -19.4508 -9.81951 20.6541
rtibia 74.2773
rfoot -11.0805 -11.7237
rtoes -12.6422
lfemur -23.4331 -2.26213 -22.8398
ltibia 50.7636
lfoot -12.5692 18.8262
ltoes -9.07387
248
root 1.90238 17.281 -11.4356 -0.949538 2.5251 -4.88529
lowerback 16.4416 0.765868 0.0341396
upperback 0.739656 1.40119 4.23815
thorax -8.56166 0.769712 4.23228
lowerneck -20.819 1.20457 5.5819
upperneck 21.9636 1.40106 -5.90142
head 10.5773 0.383786 -2.84501
rclavicle 1.00386e-014 2.70347e-014
rhumerus -41.8941 -2.53876 -75.4744
rradius 37.8255
rwrist -7.18521
rhand -20.429 2.13211
rfingers 7.12502
rthumb 5.92564 -27.765
lclavicle 1.00386e-014 2.70347e-014
lhumerus -37.0108 6.47964 75.2604
lradius 34.5291
lwrist 4.29847
lhand -18.0481 -8.55059
lfingers 7.12502
lthumb 8.22388 21.2694
rfemur -19.7806 -9.95722 20.6067
rtibia 73.6741
rfoot -10.8503 -11.4681
rtoes -12.7307
lfemur -23.1278 -2.02869 -23.1137
ltibia 50.4798
lfoot -12.3138 18.7096
ltoes -9.21902
249
root 1.90821 17.3242 -11.3427 -0.768167 2.70585 -4.75437
lowerback 16.5145 0.722893 0.0231008
upperback 0.714404 1.34995 4.29134
thorax -8.6281 0.747783 4.31
lowerneck -20.8336 1.20911 5.66247
upperneck 21.8413 1.41854 -6.06583
head 10.5384 0.37777 -2.9131
rclavicle 1.08338e-014 -1.66979e-014
rhumerus -41.4738 -3.02512 -75.2016
rradius 38.3574
rwrist -7.64967
rhand -20.9019 1.91737
rfingers 7.12502
rthumb 5.46904 -27.9921
lclavicle 1.08338e-014 -1.66979e-014
lhumerus -36.6298 6.32084 75.7557
lradius 34.6622
lwrist 4.52692
lhand -18.2456 -8.6228
lfingers 7.12502
lthumb 8.03326 21.2045
rfemur -20.0649 -10.1077 20.5749
rtibia 73.1392
rfoot -10.6312 -11.3013
rtoes -12.8449
lfemur -22.9153 -1.80167 -23.3609
ltibia 50.2703
lfoot -12.016 18.5542
ltoes -9.40216
250
root 1.9138 17.367 -11.2511 -0.554421 2.92377 -4.64658
lowerback 16.5514 0.661507 0.0566851
upperback 0.681971 1.28159 4.33825
thorax -8.67953 0.715611 4.35936
lowerneck -20.8671 1.20548 5.71254
upperneck 21.7185 1.43028 -6.21868
head 10.5022 0.36774 -2.97277
rclavicle -1.25234e-014 3.65764e-014
rhumerus -41.0538 -3.59767 -74.9088
rradius 38.8094
rwrist -7.87499
rhand -21.2588 1.70768
rfingers 7.12502
rthumb 5.12446 -28.2104
lclavicle -1.25234e-014 3.65764e-014
lhumerus -36.2665 6.17773 76.1657
lradius 34.7945
lwrist 4.87804
lhand -18.3924 -8.59881
lfingers 7.12502
lthumb 7.89164 21.2339
rfemur -20.3051 -10.2748 20.5589
rtibia 72.6666
rfoot -10.4459 -11.2427
rtoes -12.9106
lfemur -22.7971 -1.60967 -23.5769
ltibia 50.1381
lfoot -11.6615 18.36
ltoes -9.63831
251
root 1.9186 17.4095 -11.1603 -0.299432 3.18128 -4.57849
lowerback 16.5384 0.580137 0.144757
upperback 0.640797 1.19625 4.386
thorax -8.71008 0.672926 4.3822
lowerneck -20.8424 1.19941 5.77274
upperneck 21.537 1.44077 -6.39115
head 10.4341 0.356324 -3.03955
rclavicle -8.74653e-015 2.8625e-014
rhumerus -40.6399 -4.20611 -74.6204
rradius 39.1946
rwrist -7.91031
rhand -21.5258 1.56283
rfingers 7.12502
rthumb 4.8667 -28.3613
lclavicle -8.74653e-015 2.8625e-014
lhumerus -35.9219 6.03143 76.5037
lradius 34.9437
lwrist 5.29917
lhand -18.468 -8.3791
lfingers 7.12502
lthumb 7.81867 21.4563
rfemur -20.516 -10.4587 20.5865
rtibia 72.2496
rfoot -10.3115 -11.3171
rtoes -12.9251
lfemur -22.7774 -1.48395 -23.7328
ltibia 50.0722
lfoot -11.2499 18.1215
ltoes -9.93651
252
root 1.92245 17.4509 -11.0698 -0.0191818 3.47443 -4.52912
lowerback 16.4846 0.487103 0.255514
upperback 0.603283 1.09864 4.43564
thorax -8.71245 0.62309 4.39648
lowerneck -20.8436 1.18558 5.82901
upperneck 21.3214 1.43984 -6.56924
head 10.3579 0.338328 -3.10862
rclavicle 4.96962e-015 2.14687e-014
rhumerus -40.2226 -4.81848 -74.3465
rradius 39.5471
rwrist -7.8555
rhand -21.6948 1.39968
rfingers 7.12502
rthumb 4.70351 -28.5281
lclavicle 4.96962e-015 2.14687e-014
lhumerus -35.5824 5.8715 76.7906
lradius 35.0972
lwrist 5.67539
lhand -18.5238 -8.07402
lfingers 7.12502
lthumb 7.76478 21.7634
rfemur -20.6816 -10.6605 20.6303
rtibia 71.8852
rfoot -10.2385 -11.5168
rtoes -12.8935
lfemur -22.8202 -1.44294 -23.846
ltibia 50.0528
lfoot -10.8302 17.8521
ltoes -10.2478
253
root 1.92487 17.4907 -10.9796 0.269745 3.80225 -4.49043
lowerback 16.4186 0.390602 0.374568
upperback 0.561479 0.997834 4.48625
thorax -8.71249 0.571408 4.40766
lowerneck -20.8975 1.17123 5.87098
upperneck 21.1386 1.43474 -6.72309
head 10.303 0.319587 -3.16817
rclavicle 2.18663e-015 4.85035e-014
rhumerus -39.8392 -5.39313 -74.0952
rradius 39.8902
rwrist -7.76099
rhand -21.7923 1.22605
rfingers 7.12502
rthumb 4.60932 -28.7038
lclavicle 2.18663e-015 4.85035e-014
lhumerus -35.2712 5.66318 77.0444
lradius 35.2792
lwrist 5.9493
lhand -18.5525 -7.68367
lfingers 7.12502
lthumb 7.7371 22.1548
rfemur -20.7889 -10.8812 20.6831
rtibia 71.5705
rfoot -10.2149 -11.8375
rtoes -12.7527
lfemur -22.8895 -1.48728 -23.9188
ltibia 50.0559
lfoot -10.4201 17.5501
ltoes -10.584
254
root 1.9257 17.5283 -10.8897 0.554993 4.15034 -4.45782
lowerback 16.3464 0.299208 0.483548
upperback 0.52617 0.901289 4.53647
thorax -8.70257 0.522005 4.4228
lowerneck -20.9634 1.13377 5.87462
upperneck 20.9773 1.39311 -6.81151
head 10.2547 0.288769 -3.20349
rclavicle 5.36719e-015 1.51076e-014
rhumerus -39.4792 -5.90432 -73.8906
rradius 40.2329
rwrist -7.68167
rhand -21.8879 1.044
rfingers 7.12502
rthumb 4.51706 -28.8878
lclavicle 5.36719e-015 1.51076e-014
lhumerus -34.967 5.38803 77.2746
lradius 35.4663
lwrist 6.10742
lhand -18.5712 -7.3462
lfingers 7.12502
lthumb 7.71904 22.4929
rfemur -20.8335 -11.1048 20.7389
rtibia 71.3074
rfoot -10.2311 -12.2642
rtoes -12.5371
lfemur -22.9559 -1.60809 -23.9518
ltibia 50.0613
lfoot -10.0391 17.2212
ltoes -10.9508
255
root 1.92492 17.5629 -10.7997 0.823161 4.5108 -4.42862
lowerback 16.282 0.217625 0.575392
upperback 0.499484 0.814387 4.58753
thorax -8.68877 0.477855 4.4462
lowerneck -21.0435 1.07602 5.84002
upperneck 20.8655 1.3196 -6.83133
head 10.2237 0.248368 -3.21355
rclavicle 4.57205e-015 -2.06736e-014
rhumerus -39.1373 -6.32632 -73.7373
rradius 40.5719
rwrist -7.66246
rhand -21.9985 0.851288
rfingers 7.12502
rthumb 4.41019 -29.0828
lclavicle 4.57205e-015 -2.06736e-014
lhumerus -34.6686 5.06099 77.4847
lradius 35.6664
lwrist 6.15824
lhand -18.5599 -7.13683
lfingers 7.12502
lthumb 7.72996 22.7019
rfemur -20.8054 -11.3305 20.7936
rtibia 71.0943
rfoot -10.2616 -12.7664
rtoes -12.265
lfemur -22.9878 -1.79125 -23.9482
ltibia 50.0512
lfoot -9.70203 16.8657
ltoes -11.3941
256
root 1.92295 17.594 -10.7096 1.0819 4.85313 -4.38724
lowerback 16.2219 0.157924 0.629051
upperback 0.475536 0.748831 4.63343
thorax -8.67643 0.445443 4.48072
lowerneck -21.1143 0.992752 5.76502
upperneck 20.776 1.20791 -6.78264
head 10.1955 0.195611 -3.19812
rclavicle -1.47101e-014 4.92986e-014
rhumerus -38.8207 -6.65826 -73.6334
rradius 40.8986
rwrist -7.7102
rhand -22.1417 0.687578
rfingers 7.12502
rthumb 4.2719 -29.2493
lclavicle -1.47101e-014 4.92986e-014
lhumerus -34.3945 4.68055 77.6771
lradius 35.8864
lwrist 6.11334
lhand -18.537 -7.07233
lfingers 7.12502
lthumb 7.75209 22.7656
rfemur -20.7251 -11.5288 20.8299
rtibia 70.9343
rfoot -10.2989 -13.3098
rtoes -11.9528
lfemur -22.9841 -2.00534 -23.9288
ltibia 50.0153
lfoot -9.40973 16.5
ltoes -11.9224
257
root 1.92028 17.6214 -10.6193 1.33125 5.15304 -4.34495
lowerback 16.1683 0.125724 0.656726
upperback 0.456032 0.71438 4.67394
thorax -8.66545 0.428931 4.51688
lowerneck -21.1319 0.911197 5.73159
upperneck 20.6679 1.08897 -6.74134
head 10.1507 0.142765 -3.19244
rclavicle 2.36554e-014 2.70347e-014
rhumerus -38.5202 -6.8929 -73.5812
rradius 41.2092
rwrist -7.85153
rhand -22.2912 0.582871
rfingers 7.12502
rthumb 4.12753 -29.3569
lclavicle 2.36554e-014 2.70347e-014
lhumerus -34.1287 4.26769 77.8447
lradius 36.115
lwrist 5.99473
lhand -18.5088 -7.09113
lfingers 7.12502
lthumb 7.77928 22.7458
rfemur -20.601 -11.6754 20.8615
rtibia 70.8219
rfoot -10.3026 -13.8811
rtoes -11.6122
lfemur -22.9408 -2.22024 -23.8866
ltibia 49.9484
lfoot -9.18258 16.1377
ltoes -12.4961
258
root 1.91764 17.6453 -10.5282 1.57714 5.39044 -4.2885
lowerback 16.1098 0.123579 0.646867
upperback 0.444844 0.711704 4.70887
thorax -8.64532 0.428966 4.56068
lowerneck -21.173 0.809712 5.65954
upperneck 20.5864 0.945078 -6.66041
head 10.1177 0.0797624 -3.1705
rclavicle -7.55382e-015 4.13472e-014
rhumerus -38.2145 -7.03882 -73.5631
rradius 41.48
rwrist -8.03192
rhand -22.4186 0.560739
rfingers 7.12502
rthumb 4.00456 -29.3814
lclavicle -7.55382e-015 4.13472e-014
lhumerus -33.8744 3.84128 77.9908
lradius 36.3552
lwrist 5.82824
lhand -18.4981 -7.23748
lfingers 7.12502
lthumb 7.78963 22.599
rfemur -20.4445 -11.7587 20.8681
rtibia 70.7524
rfoot -10.2554 -14.4377
rtoes -11.2858
lfemur -22.8615 -2.40059 -23.8458
ltibia 49.8534
lfoot -9.02585 15.788
ltoes -13.0557
259
root 1.9157 17.6656 -10.4363 1.83045 5.56083 -4.21196
lowerback 16.0424 0.147955 0.604485
upperback 0.426861 0.737057 4.73165
thorax -8.62995 0.443662 4.60333
lowerneck -21.1975 0.718647 5.61841
upperneck 20.4921 0.811889 -6.60246
head 10.0784 0.0215851 -3.15996
rclavicle -9.54166e-015 -1.66979e-014
rhumerus -37.9276 -7.096 -73.5737
rradius 41.7105
rwrist -8.22569
rhand -22.5008 0.611517
rfingers 7.12502
rthumb 3.92519 -29.3321
lclavicle -9.54166e-015 -1.66979e-014
lhumerus -33.6518 3.42713 78.1032
lradius 36.6048
lwrist 5.63671
lhand -18.4947 -7.43571
lfingers 7.12502
lthumb 7.79291 22.4007
rfemur -20.2691 -11.775 20.8407
rtibia 70.718
rfoot -10.1595 -14.9607
rtoes -10.9115
lfemur -22.7613 -2.53237 -23.8237
ltibia 49.739
lfoot -8.92499 15.4677
ltoes -13.5795
260
root 1.91418 17.6824 -10.3441 2.08969 5.66972 -4.13428
lowerback 15.9666 0.194353 0.549542
upperback 0.406807 0.788736 4.75001
thorax -8.61431 0.471468 4.64218
lowerneck -21.2395 0.614779 5.55686
upperneck 20.3891 0.663791 -6.53343
head 10.0382 -0.0440814 -3.14413
rclavicle -2.18663e-015 7.87187e-014
rhumerus -37.6521 -7.06828 -73.609
rradius 41.9158
rwrist -8.41942
rhand -22.5353 0.691599
rfingers 7.12502
rthumb 3.8919 -29.2526
lclavicle -2.18663e-015 7.87187e-014
lhumerus -33.4468 3.03128 78.1902
lradius 36.8616
lwrist 5.45613
lhand -18.5066 -7.58699
lfingers 7.12502
lthumb 7.78141 22.2498
rfemur -20.0791 -11.724 20.8061
rtibia 70.708
rfoot -10.0356 -15.4482
rtoes -10.604
lfemur -22.6575 -2.59631 -23.8034
ltibia 49.6242
lfoot -8.89232 15.1831
ltoes -14.029
